<?xml version="1.0" standalone="no"?>
<!DOCTYPE svg PUBLIC "-//W3C//DTD SVG 20010904//EN"
 "http://www.w3.org/TR/2001/REC-SVG-20010904/DTD/svg10.dtd">
<svg version="1.0" xmlns="http://www.w3.org/2000/svg"
 width="1280.000000pt" height="1164.000000pt" viewBox="0 0 1280.000000 1164.000000"
 preserveAspectRatio="xMidYMid meet">
<metadata>
Created by potrace 1.15, written by Peter Selinger 2001-2017
</metadata>
<g transform="translate(0.000000,1164.000000) scale(0.100000,-0.100000)"
fill="#000000" stroke="none">
<path d="M1725 11629 c-683 -88 -1375 -719 -1629 -1484 -73 -223 -109 -467
-88 -611 6 -43 39 -259 72 -479 33 -220 83 -546 110 -725 27 -179 77 -505 110
-725 33 -220 83 -546 110 -725 27 -179 103 -680 169 -1115 208 -1369 249
-1648 255 -1730 20 -267 159 -573 377 -831 155 -183 403 -392 611 -514 65 -39
127 -88 209 -166 397 -379 884 -626 1400 -711 122 -20 324 -21 909 -4 448 13
936 27 1450 41 201 5 442 12 535 15 l170 6 710 -487 c1569 -1075 1998 -1367
2024 -1377 53 -20 122 20 137 77 4 18 -61 320 -196 914 -112 488 -205 892
-207 898 -5 13 185 18 1177 35 344 5 669 14 723 19 620 61 1102 435 1306 1013
62 178 94 344 106 557 6 115 85 914 225 2280 16 157 47 465 70 685 75 746 180
1779 207 2040 24 239 25 270 14 390 -14 163 -32 248 -82 400 -49 151 -140 332
-227 455 -162 228 -422 451 -655 561 -46 21 -83 53 -164 139 -204 215 -410
355 -673 455 -179 68 -340 98 -625 115 -179 11 -1807 126 -7410 525 -577 41
-1075 74 -1105 74 -30 -1 -86 -6 -125 -10z"/>
</g>
</svg>
